Coordinates
version=1
nRows=9
nColumns=24
inDegrees=yes

Units are S.I. units (second, meters, Newtons, ...)
Angles are in degrees.

endheader
time	pelvis_tilt	pelvis_list	pelvis_rotation	pelvis_tx	pelvis_ty	pelvis_tz	hip_flexion_r	hip_adduction_r	hip_rotation_r	knee_angle_r	ankle_angle_r	subtalar_angle_r	mtp_angle_r	hip_flexion_l	hip_adduction_l	hip_rotation_l	knee_angle_l	ankle_angle_l	subtalar_angle_l	mtp_angle_l	lumbar_extension	lumbar_bending	lumbar_rotation
      0.87433333	     -6.16661571	     -2.19680319	      3.82673311	     -0.39138259	      0.90512724	      0.30962495	     16.89918433	      9.18661393	     -2.21112083	    -20.05529320	      8.49693503	     -5.41197342	      6.82750464	     24.01955453	     -6.93307621	     -5.80109230	    -59.26858206	      7.85545366	     -3.19290281	      3.84982624	      3.86906254	      3.99069995	     -0.31701745
      0.87850000	     -6.12820618	     -2.07262885	      3.47485325	     -0.38652629	      0.90602881	      0.31024884	     16.27356638	      9.16944907	     -1.92630859	    -19.61068994	      8.55585323	     -5.18387609	      6.84022670	     24.40265968	     -6.85778057	     -6.11446372	    -58.36879186	      7.90479321	     -3.64219773	      3.77640541	      3.76941838	      3.88951641	      0.03804428
      0.88266667	     -6.09312692	     -1.95215506	      3.10385280	     -0.38168166	      0.90687272	      0.31088195	     15.66138589	      9.15246893	     -1.62900111	    -19.18416832	      8.61285899	     -4.95825903	      6.85631312	     24.77200953	     -6.79450624	     -6.44355558	    -57.43383661	      7.92728276	     -4.08847758	      3.69216992	      3.67916855	      3.80962993	      0.37210287
      0.88683333	     -6.05283499	     -1.82969598	      2.70911525	     -0.37686277	      0.90767383	      0.31154140	     15.05687463	      9.13093404	     -1.31693547	    -18.78015021	      8.66130079	     -4.73442031	      6.87339043	     25.11759420	     -6.74336262	     -6.80070582	    -56.46551321	      7.91904433	     -4.53873652	      3.60796314	      3.58188078	      3.75212342	      0.68144982
      0.89100000	     -6.01076157	     -1.71298278	      2.33546751	     -0.37203744	      0.90842526	      0.31218257	     14.44298392	      9.10506985	     -1.02140947	    -18.35736038	      8.73826159	     -4.50309983	      6.89857205	     25.45724238	     -6.69241966	     -7.13260709	    -55.47439134	      7.87848134	     -5.00288320	      3.49193486	      3.48426156	      3.65624093	      1.08601715
      0.89516667	     -5.97633607	     -1.60233605	      1.92075463	     -0.36723643	      0.90909889	      0.31287858	     13.86006245	      9.08678844	     -0.69499755	    -17.97846023	      8.78676311	     -4.27657835	      6.92007234	     25.78662661	     -6.67829110	     -7.52409672	    -54.46076614	      7.82335413	     -5.42358123	      3.39682062	      3.39226290	      3.60980327	      1.37727155
      0.89933333	     -5.92737514	     -1.48815849	      1.51262748	     -0.36244304	      0.90975879	      0.31355200	     13.25573640	      9.05432683	     -0.38434461	    -17.58088225	      8.86390172	     -4.04736767	      6.94958798	     26.08612256	     -6.64809455	     -7.88441036	    -53.41106296	      7.72441665	     -5.88567509	      3.27330966	      3.28464852	      3.52864139	      1.78344653
      0.90350000	     -5.89228615	     -1.38871980	      1.09269515	     -0.35766474	      0.91032869	      0.31424837	     12.68139163	      9.03343680	     -0.06087517	    -17.21209217	      8.92800587	     -3.81626114	      6.97806274	     26.39419072	     -6.65165910	     -8.27190019	    -52.35143091	      7.61977693	     -6.28212833	      3.16045579	      3.19446231	      3.47866019	      2.11896648
      0.90766667	     -5.85131538	     -1.29289068	      0.69022681	     -0.35287946	      0.91085868	      0.31491468	     12.09257243	      9.00490193	      0.24008812	    -16.82215545	      9.02608895	     -3.57565352	      7.02067370	     26.68729722	     -6.64372529	     -8.61945427	    -51.26987740	      7.49494492	     -6.69492442	      2.99967179	      3.10186461	      3.39938731	      2.57555815
